# xmcd CD database file
#
# Track frame offsets:
#	150
#	29905
#	46497
#	64385
#	86785
#	109097
#	130842
#	150787
#	168010
#	193325
#
# Disc length: 2759 seconds
#
# Revision: 1
# Processed by: cddbd v1.5.2PL0 Copyright (c) Steve Scherf et al.
# Submitted via: CDex 1.70beta2
#
DISCID=870ac50a
DTITLE=GARGOYLE - 禊
DYEAR=1989
DGENRE=Rock
TTITLE0=DESTROY
TTITLE1=BALA薔薇VARA
TTITLE2='ぎ'
TTITLE3=Purple Heaven
TTITLE4=Certain Feel
TTITLE5=虫けら
TTITLE6=人形の森
TTITLE7=NO GAS
TTITLE8=EVER GREEN
TTITLE9=Cogito, ergo sum
EXTD=YEAR: 1989
EXTT0=
EXTT1=
EXTT2=
EXTT3=
EXTT4=
EXTT5=
EXTT6=
EXTT7=
EXTT8=
EXTT9=
PLAYORDER=
